<svg width="823" height="222" viewBox="0 0 823 222" fill="none" xmlns="http://www.w3.org/2000/svg">
<path d="M353.4 220.6C338 220.6 324.1 217.6 311.7 211.6C299.3 205.4 289.4 196.1 282 183.7C274.8 171.3 271.2 155.6 271.2 136.6V6.99999H309.6V136.9C309.6 153.3 313.5 165.5 321.3 173.5C329.3 181.5 340.3 185.5 354.3 185.5C368.1 185.5 379 181.5 387 173.5C395 165.5 399 153.3 399 136.9V6.99999H437.4V136.6C437.4 155.6 433.6 171.3 426 183.7C418.4 196.1 408.2 205.4 395.4 211.6C382.8 217.6 368.8 220.6 353.4 220.6Z" fill="white"/>
<path d="M667.1 220V190.6L763.7 42.1H668V9.99999H808.1V39.4L710.9 187.9H808.7V220H667.1Z" fill="white"/>
<path d="M20.4 220V9.99999H58.8V94.9L136.5 9.99999H183.9L106.5 93.4L186 220H138.9L78.9 122.8L58.8 144.7V220H20.4Z" fill="white"/>
<path d="M533.4 220V9.99999H571.8V220H533.4Z" fill="white"/>
</svg>
